<?xml version="1.0"?>
<svg xmlns="http://www.w3.org/2000/svg" xmlns:xlink="http://www.w3.org/1999/xlink" xmlns:svgjs="http://svgjs.com/svgjs" version="1.1" width="512" height="512" x="0" y="0" viewBox="0 0 876.754 876.755" style="enable-background:new 0 0 512 512" xml:space="preserve"><g>
<g xmlns="http://www.w3.org/2000/svg">
	<g>
		<path d="M570.347,459.5l-110.2,167l164.8,237.5c11.101,15.8,33.9,17.1,46.801,2.899l104.3-115.6c9.899-10.9,10.3-27.4,1.2-38.8    L570.347,459.5z" fill="#003c71" data-original="#000000" style=""/>
		<path d="M618.748,315.1c-2.601-39-14.4-180-50.601-262.1c-2.1-4.8-5.399-8.9-9.5-12c-16-11.9-61.2-41-120.3-41    c-59.1,0-104.3,29.1-120.3,41c-4.2,3.1-7.4,7.3-9.5,12c-36.101,82.2-47.9,223.2-50.601,262.1c-0.399,6.6,1.301,13.2,5,18.7    l38.2,57.2l109.5-143.7L369.247,189c-8-11.3-2.4-27.3,11.1-30.9c28.4-7.7,58-6.5,58-6.5s28.5-1.2,56.5,6.1    c14,3.6,19.8,20.3,10.9,31.7l-64,82.4L99.547,712.5c-9.2,11.5-8.7,27.899,1.2,38.8l104.2,115.5c12.9,14.3,35.7,12.9,46.8-2.9    l362.1-530.2C617.447,328.2,619.248,321.7,618.748,315.1z" fill="#003c71" data-original="#000000" style=""/>
	</g>
</g>
<g xmlns="http://www.w3.org/2000/svg">
</g>
<g xmlns="http://www.w3.org/2000/svg">
</g>
<g xmlns="http://www.w3.org/2000/svg">
</g>
<g xmlns="http://www.w3.org/2000/svg">
</g>
<g xmlns="http://www.w3.org/2000/svg">
</g>
<g xmlns="http://www.w3.org/2000/svg">
</g>
<g xmlns="http://www.w3.org/2000/svg">
</g>
<g xmlns="http://www.w3.org/2000/svg">
</g>
<g xmlns="http://www.w3.org/2000/svg">
</g>
<g xmlns="http://www.w3.org/2000/svg">
</g>
<g xmlns="http://www.w3.org/2000/svg">
</g>
<g xmlns="http://www.w3.org/2000/svg">
</g>
<g xmlns="http://www.w3.org/2000/svg">
</g>
<g xmlns="http://www.w3.org/2000/svg">
</g>
<g xmlns="http://www.w3.org/2000/svg">
</g>
</g></svg>
