<?xml version="1.0"?>
<svg xmlns="http://www.w3.org/2000/svg" xmlns:xlink="http://www.w3.org/1999/xlink" xmlns:svgjs="http://svgjs.com/svgjs" version="1.1" width="512" height="512" x="0" y="0" viewBox="0 0 461.924 461.924" style="enable-background:new 0 0 512 512" xml:space="preserve"><g>
<g xmlns="http://www.w3.org/2000/svg">
	<path d="M270.668,1.746c-4.581-2.714-10.384-2.228-14.451,1.217c-63.738,53.994-111.383,106.341-141.611,155.587   c-25.041,40.795-38.445,79.883-39.84,116.178c-2.132,55.522,23.653,89.616,39.214,104.997l0.294,0.291   c1.831,1.819,3.633,3.587,5.399,5.32c20.391,20.007,32.698,32.083,32.879,64.158c0.028,5.043,3.084,9.575,7.749,11.492   c1.537,0.631,3.149,0.938,4.748,0.938c3.253,0,6.451-1.271,8.842-3.662c1.439-1.438,3.296-3.14,5.444-5.107   c21.342-19.548,71.321-65.324,17.374-151.149c-0.134-0.213-0.233-0.364-0.38-0.568c-1.467-2.1-31.973-47.254,16.703-95.789   c4.072,48.812,22.082,77.651,36.975,101.5c21.942,35.137,37.796,60.522,3.447,136.476c-2.023,4.476-1.239,9.722,2.006,13.409   c3.246,3.688,8.348,5.131,13.045,3.693c3.644-1.116,89.47-28.162,112.969-101.06c15.604-48.413-0.262-104.248-47.159-165.955   c-38.171-50.222-51.839-96.126-56.583-125.792c-5.144-32.157-1.22-52.756-1.188-52.917C277.612,9.785,275.252,4.461,270.668,1.746z    M314.41,208.839c41.619,54.76,56.189,102.884,43.309,143.034c-11.991,37.379-45.768,60.92-69.985,73.502   c9.276-26.729,12.409-49.25,9.809-69.474c-3.211-24.979-14.439-42.959-26.328-61.996c-17.266-27.647-35.118-56.236-33.976-114.192   c0.094-4.741-2.503-9.126-6.705-11.324c-1.822-0.953-3.81-1.423-5.791-1.423c-2.586,0-5.159,0.802-7.334,2.377   c-49.121,35.583-58.022,73.343-56.839,98.753c1.21,25.99,13.067,44.432,15.114,47.434c34.979,55.806,17.72,87.388-1.147,107.5   c-6.138-24.912-20.887-39.386-37.353-55.54c-1.73-1.697-3.495-3.429-5.289-5.211l-0.338-0.335   c-12.637-12.491-33.572-40.308-31.807-86.259c1.227-31.955,13.395-66.965,36.163-104.059   c25.253-41.139,63.591-84.839,114.168-130.171C251.016,77.207,261.75,139.554,314.41,208.839z" fill="#003c71" data-original="#000000" style=""/>
</g>
<g xmlns="http://www.w3.org/2000/svg">
</g>
<g xmlns="http://www.w3.org/2000/svg">
</g>
<g xmlns="http://www.w3.org/2000/svg">
</g>
<g xmlns="http://www.w3.org/2000/svg">
</g>
<g xmlns="http://www.w3.org/2000/svg">
</g>
<g xmlns="http://www.w3.org/2000/svg">
</g>
<g xmlns="http://www.w3.org/2000/svg">
</g>
<g xmlns="http://www.w3.org/2000/svg">
</g>
<g xmlns="http://www.w3.org/2000/svg">
</g>
<g xmlns="http://www.w3.org/2000/svg">
</g>
<g xmlns="http://www.w3.org/2000/svg">
</g>
<g xmlns="http://www.w3.org/2000/svg">
</g>
<g xmlns="http://www.w3.org/2000/svg">
</g>
<g xmlns="http://www.w3.org/2000/svg">
</g>
<g xmlns="http://www.w3.org/2000/svg">
</g>
</g></svg>
