<?xml version="1.0"?>
<svg xmlns="http://www.w3.org/2000/svg" xmlns:xlink="http://www.w3.org/1999/xlink" xmlns:svgjs="http://svgjs.com/svgjs" version="1.1" width="512" height="512" x="0" y="0" viewBox="0 0 297 297" style="enable-background:new 0 0 512 512" xml:space="preserve" class=""><g>
<path xmlns="http://www.w3.org/2000/svg" d="M276.43,23.292c-4.238-9.34-13.243-15.142-23.499-15.142h-26.993C225.091,3.516,221.041,0,216.163,0  c-5.492,0-9.945,4.453-9.945,9.945v16.301c0,5.492,4.453,9.945,9.945,9.945c4.879,0,8.929-3.516,9.775-8.151h26.993  c3.441,0,4.914,2.428,5.388,3.472c0.473,1.044,1.33,3.751-0.935,6.341c0,0-28.94,37.676-41.368,47.278  c-6.012,4.645-27.183,13.592-27.183,13.592c-16.57,8.286-36.355,8.286-52.927,0c0,0-21.168-8.945-27.18-13.59  c-12.429-9.602-41.369-47.279-41.369-47.279c-2.266-2.59-1.408-5.297-0.935-6.341c0.474-1.044,1.947-3.472,5.388-3.472h26.993  c0.846,4.634,4.896,8.151,9.775,8.151c5.492,0,9.945-4.453,9.945-9.945V9.945c0-5.492-4.453-9.945-9.945-9.945  c-4.878,0-8.929,3.516-9.775,8.15H71.81c-10.256,0-19.261,5.803-23.499,15.142c-4.238,9.341-2.676,19.938,4.079,27.657  l100.036,114.328v67.987c0,24.177-19.67,43.847-43.848,43.847c-24.177,0-43.847-19.67-43.847-43.847v-32.193  c15.345-4.344,26.624-18.466,26.624-35.183c0-20.164-16.405-36.569-36.569-36.569s-36.569,16.405-36.569,36.569  c0,16.717,11.28,30.84,26.624,35.183v32.193c0,35.144,28.592,63.736,63.736,63.736c35.145,0,63.737-28.592,63.737-63.736v-67.987  L272.351,50.949C279.105,43.23,280.668,32.633,276.43,23.292z M38.106,165.888c0-9.197,7.483-16.68,16.68-16.68  s16.68,7.483,16.68,16.68c0,9.197-7.483,16.68-16.68,16.68S38.106,175.085,38.106,165.888z M162.37,124.814  c7.248,0,14.497-0.995,21.518-2.967l-21.518,24.592l-21.518-24.592C147.873,123.82,155.12,124.814,162.37,124.814z" fill="#003c71" data-original="#000000" style=""/>
<g xmlns="http://www.w3.org/2000/svg">
</g>
<g xmlns="http://www.w3.org/2000/svg">
</g>
<g xmlns="http://www.w3.org/2000/svg">
</g>
<g xmlns="http://www.w3.org/2000/svg">
</g>
<g xmlns="http://www.w3.org/2000/svg">
</g>
<g xmlns="http://www.w3.org/2000/svg">
</g>
<g xmlns="http://www.w3.org/2000/svg">
</g>
<g xmlns="http://www.w3.org/2000/svg">
</g>
<g xmlns="http://www.w3.org/2000/svg">
</g>
<g xmlns="http://www.w3.org/2000/svg">
</g>
<g xmlns="http://www.w3.org/2000/svg">
</g>
<g xmlns="http://www.w3.org/2000/svg">
</g>
<g xmlns="http://www.w3.org/2000/svg">
</g>
<g xmlns="http://www.w3.org/2000/svg">
</g>
<g xmlns="http://www.w3.org/2000/svg">
</g>
</g></svg>
