<?xml version="1.0"?>
<svg xmlns="http://www.w3.org/2000/svg" xmlns:xlink="http://www.w3.org/1999/xlink" xmlns:svgjs="http://svgjs.com/svgjs" version="1.1" width="512" height="512" x="0" y="0" viewBox="0 0 470 470" style="enable-background:new 0 0 512 512" xml:space="preserve"><g>
  <g xmlns="http://www.w3.org/2000/svg">
    <path d="m394.351,31.018c-25.582-21.162-53.044-31.018-86.424-31.018-28.242,0-57.168,7.099-87.792,14.614-34.608,8.493-70.395,17.276-109.812,17.276-21.93,0-42.672-2.708-63.412-8.278l-12.312-3.307-.28,12.745c-0.514,23.425 9.449,52.277 26.651,77.18 14.897,21.566 42.744,51.306 90.812,70.515 75.13,30.027 82.448,62.324 89.524,93.557 0.99,4.369 2.014,8.886 3.201,13.309 12.277,45.747 36.33,75.059 65.579,80.941v101.448h20v-101.066c29.106-4.75 55.225-32.466 71.082-76.171 19.805-54.583 30.847-99.674 33.758-137.85 4.3-56.382-9.352-98.066-40.575-123.895zm-73.241,318.649c-24.205-5.68434e-14-46.156-25.765-57.287-67.24-1.085-4.042-2.02-8.172-3.011-12.544-3.776-16.667-8.057-35.557-22.333-54.372-3.355-4.421-7.165-8.686-11.433-12.807 15.329,4.438 31.896,10.137 48.253,17.558 46.375,21.041 79.075,50.304 97.194,86.977l.775-.383c-14.103,27.165-32.808,42.811-52.158,42.811zm-12.208-134.623l5.854-124.831c0.15-1.935 2.028-3.685 3.97-3.685h1.483c1.941,0 3.819,1.75 3.969,3.685l6.516,138.943c-6.831-4.967-14.103-9.669-21.792-14.112zm106.082-61.652c-2.749,36.037-13.274,78.987-32.15,131.242-8.602-14.069-19.238-27.016-31.868-38.796l.533-.025-7.346-156.638-.008-.151c-0.77-12.404-11.507-22.495-23.935-22.495h-1.483c-12.427,0-23.164,10.091-23.935,22.495l-5.429,115.737c-1.914-0.916-3.841-1.823-5.798-2.711-40.551-18.398-81.665-26.652-104.357-31.12-6.263-3.011-12.926-5.928-20.003-8.756-68.786-27.489-98.509-80.984-103.963-115.991 17.988,3.833 36.13,5.707 55.081,5.707 41.836,0 80.482-9.484 114.579-17.852 29.417-7.22 57.202-14.038 83.025-14.038 28.467,0 51.879,8.398 73.676,26.429 25.927,21.448 37.158,57.435 33.381,106.963z" fill="#003c71" data-original="#000000" style=""/>
  </g>
</g></svg>
