<svg version="1.2" xmlns="http://www.w3.org/2000/svg" xmlns:xlink="http://www.w3.org/1999/xlink" overflow="visible" preserveAspectRatio="none" viewBox="0 0 24 24" width="59" height="59"><g><path xmlns:default="http://www.w3.org/2000/svg" id="hospital-o" d="M8.57,16.1C8.51,16.04,8.43,16,8.34,16H7.67c-0.18,0.01-0.32,0.15-0.33,0.33V17  c0.01,0.18,0.15,0.32,0.33,0.33h0.67c0.18-0.01,0.32-0.15,0.33-0.33v-0.67C8.67,16.24,8.63,16.16,8.57,16.1z M8.57,13.43  c-0.06-0.06-0.14-0.1-0.23-0.1H7.67c-0.18,0.01-0.32,0.15-0.33,0.33v0.67c0.01,0.18,0.15,0.32,0.33,0.33h0.67  c0.18-0.01,0.32-0.15,0.33-0.33v-0.66C8.67,13.58,8.64,13.49,8.57,13.43z M11.33,13.66c-0.01-0.18-0.15-0.32-0.33-0.33h-0.67  c-0.18,0.01-0.32,0.15-0.33,0.33v0.67c0.01,0.18,0.15,0.32,0.33,0.33H11c0.18-0.01,0.32-0.15,0.33-0.33v-0.66l0,0V13.66z   M8.57,10.76c-0.06-0.06-0.14-0.1-0.23-0.1H7.67c-0.18,0.01-0.32,0.15-0.33,0.33v0.67c0.01,0.18,0.15,0.32,0.33,0.33h0.67  c0.18-0.01,0.32-0.15,0.33-0.33V11c0-0.09-0.04-0.17-0.1-0.23V10.76z M16.57,16.09c-0.06-0.06-0.14-0.1-0.23-0.1h-0.68  c-0.18,0.01-0.32,0.15-0.33,0.33V17c0.01,0.18,0.15,0.32,0.33,0.33h0.67c0.18-0.01,0.32-0.15,0.33-0.33v-0.67  c0-0.09-0.03-0.17-0.09-0.23V16.09z M14,13.67c-0.01-0.18-0.15-0.32-0.33-0.33H13c-0.18,0.01-0.32,0.15-0.33,0.33v0.67  c0.01,0.18,0.15,0.32,0.33,0.33h0.67c0.18-0.01,0.33-0.16,0.33-0.34V13.67L14,13.67z M11.33,11c-0.01-0.18-0.15-0.32-0.33-0.33  h-0.67C10.15,10.68,10.01,10.82,10,11v0.67c0.01,0.18,0.15,0.32,0.33,0.33H11c0.18-0.01,0.32-0.15,0.33-0.33V11L11.33,11z   M16.56,13.43c-0.06-0.06-0.14-0.1-0.23-0.1h-0.67c-0.18,0.01-0.32,0.15-0.33,0.33v0.67c0.01,0.18,0.15,0.32,0.33,0.33h0.67  c0.18-0.01,0.32-0.15,0.33-0.33v-0.66c0-0.09-0.03-0.18-0.09-0.24H16.56z M14,11c-0.01-0.18-0.15-0.32-0.33-0.33H13  c-0.18,0.01-0.32,0.15-0.33,0.33v0.67c0.01,0.18,0.15,0.32,0.33,0.33h0.67c0.18-0.01,0.32-0.15,0.33-0.33V11L14,11z M16.57,10.77  c-0.06-0.06-0.14-0.1-0.23-0.1h-0.68c-0.18,0.01-0.32,0.15-0.33,0.33v0.67c0.01,0.18,0.15,0.32,0.33,0.33h0.67  c0.18-0.01,0.32-0.15,0.33-0.33V11C16.66,10.91,16.63,10.83,16.57,10.77z M14,20v-2.34c-0.01-0.18-0.15-0.32-0.33-0.33h-3.34  c-0.18,0.01-0.32,0.15-0.33,0.33V20H6V8h2.67v0.34c0,0.55,0.45,1,1,1h4.66c0.55,0,1-0.45,1-1V8H18v12H14z M14,7.67  C13.99,7.85,13.85,7.99,13.67,8H13c-0.18-0.01-0.32-0.15-0.33-0.33v-1h-1.34v1C11.32,7.85,11.18,7.99,11,8h-0.67  C10.15,7.99,10.01,7.85,10,7.67V4.34c0-0.18,0.15-0.33,0.33-0.34H11c0.18,0.01,0.32,0.15,0.33,0.33v1h1.33v-1  C12.67,4.15,12.82,4,13,4h0.67c0.18,0.01,0.32,0.15,0.33,0.33V7.67L14,7.67z M19.33,7.34c-0.01-0.37-0.3-0.66-0.67-0.67h-3.33v-3  c0-0.55-0.45-1-1-1H9.67c-0.55,0-1,0.45-1,1v3H5.34c-0.37,0.01-0.66,0.3-0.67,0.67v13.32c0.01,0.37,0.3,0.66,0.67,0.67h13.32  c0.37-0.01,0.66-0.3,0.67-0.67V7.34L19.33,7.34z" style="fill: rgb(28, 132, 100);" vector-effect="non-scaling-stroke"/></g></svg>