<svg version="1.2" xmlns="http://www.w3.org/2000/svg" xmlns:xlink="http://www.w3.org/1999/xlink" overflow="visible" preserveAspectRatio="none" viewBox="0 -7.5 55 55" width="88" height="88"><g>
	<g>
		<path d="M50,0H5C2.2,0,0,2.2,0,5v30c0,2.8,2.2,5,5,5h45c2.8,0,5-2.2,5-5V5C55,2.2,52.8,0,50,0z M53,35c0,1.7-1.3,3-3,3H5    c-1.7,0-3-1.3-3-3V5c0-1.7,1.3-3,3-3h45c1.7,0,3,1.3,3,3V35z M44.7,7h-3.3C38.9,7,37,8.9,37,11.3v3.3c0,2.4,1.9,4.3,4.3,4.3h3.3    c2.4,0,4.3-1.9,4.3-4.3v-3.3C49,8.9,47.1,7,44.7,7z M47,14.7c0,1.3-1,2.3-2.3,2.3h-3.3C40,17,39,16,39,14.7v-3.3    C39,10,40,9,41.3,9h3.3C46,9,47,10,47,11.3V14.7z M26,25H7c-0.6,0-1,0.4-1,1s0.4,1,1,1h19c0.6,0,1-0.4,1-1S26.6,25,26,25z M26,30    H7c-0.6,0-1,0.4-1,1c0,0.6,0.4,1,1,1h19c0.6,0,1-0.4,1-1C27,30.4,26.6,30,26,30z" style="fill: rgb(112, 128, 144);" vector-effect="non-scaling-stroke"/>
	</g>
</g><g/></svg>