<?xml version="1.0"?>
<svg xmlns="http://www.w3.org/2000/svg" xmlns:xlink="http://www.w3.org/1999/xlink" xmlns:svgjs="http://svgjs.com/svgjs" version="1.1" width="512" height="512" x="0" y="0" viewBox="0 0 966.05 966.049" style="enable-background:new 0 0 512 512" xml:space="preserve" class=""><g>
<g xmlns="http://www.w3.org/2000/svg">
	<path d="M671.675,425.575c40.8-43.899,85.8-97.2,119.8-144.3l15.3,15.3c11.7,11.7,30.7,11.7,42.4,0l12.899-12.9   c11.7-11.7,11.7-30.7,0-42.4l-184.899-184.9c-11.7-11.7-30.7-11.7-42.4,0l-12.899,12.9c-11.7,11.7-11.7,30.7,0,42.4l15.3,15.3   c-41.5,29.9-87.9,68.5-128.3,105.1c8.8,8.4,17.3,16.7,25.5,24.8c7,7,13.899,14.1,20.6,21.2c41-37,88.4-76.2,128.8-104.5   l61.101,61.1c-30.101,42.9-72.4,93.7-111.301,136.4C646.875,388.875,659.574,407.075,671.675,425.575z" fill="#003c71" data-original="#000000" style="" class=""/>
	<path d="M113.075,851.275l155.899-155.9c63.9-22.6,125-51.6,182-86.399c-19.2-13.3-38.1-27.3-56.6-42   c-27.801,15.899-56.601,30.3-86.101,43.2c12.2-28,25.8-55.2,40.601-81.601c-15.101-13.5-29.801-27.5-44.301-41.899   c-1.399-1.4-2.8-2.801-4.199-4.2c-30.9,52.6-56.8,108.7-77.3,167l-155.9,155.8l-3.1-3.1c-11.7-11.7-30.7-11.7-42.4,0l-12.9,12.899   c-11.699,11.7-11.699,30.7,0,42.4l52.101,52.1c11.7,11.7,30.7,11.7,42.399,0l12.9-12.899c11.7-11.7,11.7-30.7,0-42.4   L113.075,851.275z" fill="#003c71" data-original="#000000" style="" class=""/>
	<path d="M944.475,802.175c-5.9-5.9-13.5-8.801-21.2-8.801s-15.399,2.9-21.2,8.801l-3.1,3.1l-156-155.9   c-23.2-65.899-53.4-128.899-89.7-187.399c-2.1-3.4-4.3-6.9-6.5-10.3c-11.8-18.5-24.399-36.7-37.6-54.601   c-24.4-32.9-51.101-64.8-80-95.2c-6.4-6.8-13-13.5-19.601-20.2c-8.199-8.2-17.1-16.8-26.5-25.7c-45.6-43.1-103.399-92.4-154.1-129   l15.3-15.3c11.7-11.7,11.7-30.7,0-42.4l-12.899-12.9c-5.9-5.9-13.5-8.8-21.2-8.8s-15.4,2.9-21.2,8.8l-184.899,184.9   c-11.7,11.7-11.7,30.7,0,42.4l12.899,12.9c5.9,5.9,13.5,8.8,21.2,8.8s15.4-2.9,21.2-8.8l15.3-15.3c41,56.9,98.3,123,144.6,170.4   c3.4,3.5,6.8,6.899,10.101,10.199c12.3,12.301,24.899,24.301,37.699,35.9c19.301,17.5,39.2,34.2,59.5,50   c18.5,14.4,37.4,28,56.5,40.8c8.801,5.9,17.601,11.601,26.601,17.101c58.5,36.3,121.5,66.5,187.399,89.699l155.9,155.9l-3.1,3.1   c-11.7,11.7-11.7,30.7,0,42.4l12.899,12.9c5.9,5.899,13.5,8.8,21.2,8.8s15.4-2.9,21.2-8.8l52.1-52.101   c11.7-11.7,11.7-30.7,0-42.399L944.475,802.175z M543.875,550.375c-1.4-0.899-2.9-1.8-4.301-2.699c-19.199-12.101-38-25-56.5-38.7   c-27.3-20.2-53.8-42.2-79.399-65.8c-9.601-8.9-19.101-18-28.4-27.301c-5.899-5.899-12-12.199-18.399-18.8   c-44.601-46.7-99.101-110.3-135.601-162.4l61.101-61.1c49.199,34.5,108.8,85.1,154.6,128.2c9.6,9,18.5,17.7,26.6,25.8   c6.601,6.6,13.101,13.3,19.5,20c28.9,30.5,55.4,62.5,79.4,95.5c12.6,17.4,24.5,35.101,35.7,53.101c0.3,0.5,0.6,1,0.899,1.5   c22.101,35.8,41.801,73.399,58.801,112.399C618.274,592.875,580.175,572.875,543.875,550.375z" fill="#003c71" data-original="#000000" style="" class=""/>
</g>
<g xmlns="http://www.w3.org/2000/svg">
</g>
<g xmlns="http://www.w3.org/2000/svg">
</g>
<g xmlns="http://www.w3.org/2000/svg">
</g>
<g xmlns="http://www.w3.org/2000/svg">
</g>
<g xmlns="http://www.w3.org/2000/svg">
</g>
<g xmlns="http://www.w3.org/2000/svg">
</g>
<g xmlns="http://www.w3.org/2000/svg">
</g>
<g xmlns="http://www.w3.org/2000/svg">
</g>
<g xmlns="http://www.w3.org/2000/svg">
</g>
<g xmlns="http://www.w3.org/2000/svg">
</g>
<g xmlns="http://www.w3.org/2000/svg">
</g>
<g xmlns="http://www.w3.org/2000/svg">
</g>
<g xmlns="http://www.w3.org/2000/svg">
</g>
<g xmlns="http://www.w3.org/2000/svg">
</g>
<g xmlns="http://www.w3.org/2000/svg">
</g>
</g></svg>
