<svg xmlns="http://www.w3.org/2000/svg" version="1.2" overflow="visible" preserveAspectRatio="none" viewBox="0 0 24 24" width="14" height="14"><g><defs> </defs> <rect display="none" fill="#FFA400" width="24" height="24" style="fill: rgb(242, 93, 67);" vector-effect="non-scaling-stroke"/> <rect id="_x3C_Slice_x3E__126_" display="none" fill="none" width="24" height="24" style="fill: rgb(242, 93, 67);" vector-effect="non-scaling-stroke"/> <path fill-rule="evenodd" clip-rule="evenodd" d="M12,0C5.373,0,0,5.373,0,12s5.373,12,12,12s12-5.373,12-12S18.627,0,12,0z M17.686,14.835c0.394,0.394,0.394,1.032,0,1.425l-1.425,1.425c-0.394,0.394-1.032,0.394-1.426,0l-2.851-2.851l-2.851,2.851 c-0.394,0.394-1.032,0.394-1.426,0L6.283,16.26c-0.394-0.394-0.394-1.032,0-1.425l2.851-2.851L6.283,9.134 c-0.394-0.394-0.394-1.032,0-1.426l1.425-1.425c0.394-0.394,1.032-0.394,1.426,0l2.851,2.851l2.851-2.851 c0.394-0.394,1.032-0.394,1.426,0l1.425,1.425c0.394,0.394,0.394,1.032,0,1.426l-2.851,2.851L17.686,14.835z" style="fill: rgb(242, 93, 67);" vector-effect="non-scaling-stroke"/> </g></svg>